<svg xmlns="http://www.w3.org/2000/svg" viewBox="0 0 32 32">
  <!-- Document body -->
  <path d="M6 4a2 2 0 0 1 2-2h9l7 7v17a2 2 0 0 1-2 2H8a2 2 0 0 1-2-2V4z" fill="#2563eb"/>
  <!-- Document fold -->
  <path d="M17 2l7 7h-5a2 2 0 0 1-2-2V2z" fill="#93c5fd"/>
  <!-- Unlocked padlock body -->
  <rect x="19" y="21" width="11" height="9" rx="1.5" fill="#f8fafc" stroke="#2563eb" stroke-width="1"/>
  <!-- Unlocked padlock shackle (open) -->
  <path d="M22 21v-3a2.5 2.5 0 0 1 5 0" fill="none" stroke="#f8fafc" stroke-width="2.5" stroke-linecap="round"/>
  <path d="M22 21v-3a2.5 2.5 0 0 1 5 0" fill="none" stroke="#2563eb" stroke-width="1.5" stroke-linecap="round"/>
</svg>
